<?xml version="1.0" standalone="no"?>
<!DOCTYPE svg PUBLIC "-//W3C//DTD SVG 20010904//EN"
 "http://www.w3.org/TR/2001/REC-SVG-20010904/DTD/svg10.dtd">
<svg version="1.0" xmlns="http://www.w3.org/2000/svg"
 width="640.000000pt" height="640.000000pt" viewBox="0 0 640.000000 640.000000"
 preserveAspectRatio="xMidYMid meet">
<metadata>
Created by potrace 1.11, written by Peter Selinger 2001-2013
</metadata>
<g transform="translate(0.000000,640.000000) scale(0.100000,-0.100000)"
fill="#000000" stroke="none">
<path d="M1918 5119 l-1278 -1279 266 -266 266 -267 507 507 507 507 241 -241
240 -240 -503 -504 c-277 -277 -504 -506 -504 -510 0 -8 518 -526 526 -526 4
0 233 227 510 504 l504 504 241 -241 240 -241 -507 -507 -507 -507 267 -266
266 -266 1280 1280 1280 1280 -266 266 -266 267 -507 -507 -507 -507 -241 241
-240 240 503 504 c277 277 504 506 504 510 0 8 -518 526 -526 526 -4 0 -233
-227 -510 -504 l-504 -504 -241 241 -240 241 507 507 507 507 -267 266 c-146
146 -267 266 -269 265 -1 0 -577 -576 -1279 -1280z"/>
</g>
</svg>
